<svg width="177" height="50" viewBox="0 0 177 50" fill="none" xmlns="http://www.w3.org/2000/svg">
<g clip-path="url(#clip0_216_208)">
<path d="M3.3 0C1.5 0 0 1.4 0 3.2C0 5 1.4 6.5 3.2 6.5C5 6.5 6.5 5.1 6.5 3.3C6.5 1.5 5 0 3.3 0ZM123.7 0C121.9 0 120.4 1.5 120.4 3.3C120.4 5.1 121.9 6.6 123.7 6.6C125.5 6.6 127 5.1 127 3.3C127 1.5 125.5 0 123.7 0ZM13.2 1V5.6H113.8V1H13.2ZM26.8 13.5C23.2 13.5 20.5 15.6 18.9 16.8L18.7 17C18.3 15.4 17 14.3 15.4 14.2H13.2V39.5H18.9V21C20 20.4 22.6 18.8 25 18.8C28.2 18.8 28.8 20.5 28.8 24.1V39.5H34.5V23.4C34.5 18.2 34 13.5 26.8 13.5ZM106.1 13.5C102.5 13.5 99.8 15.6 98.2 16.8C98.1 16.9 98.1 16.9 98 17C97.6 15.4 96.3 14.3 94.7 14.2H92.5V39.5H98.2V21C99.3 20.4 101.9 18.8 104.3 18.8C107.5 18.8 108.1 20.5 108.1 24.1V39.5H113.8V23.4C113.8 18.2 113.3 13.5 106.1 13.5ZM144.2 13.6C136.7 13.6 132 18.7 132 26.7C132 36.2 135.6 40 145.1 40C147.1 40 149.1 39.7 151.1 39.2L150.3 34.5C148.7 34.8 147.1 35 145.5 35.1C139.3 35.1 137.9 32.6 137.9 26.8C137.9 20.9 140.7 18.6 144.3 18.6C146.2 18.6 148 19 149.7 19.7L151.3 15.2C149.1 14 146.6 13.4 144.2 13.6ZM165.9 13.6C158.9 13.6 154.2 18.6 154.2 27.1C154.2 35.2 158.3 40.1 165.5 40.1C172.3 40.1 177.4 35.6 177.4 26.9C177.4 18.4 173.7 13.6 165.9 13.6ZM77.9 13.6C71.3 13.6 66.4 17 66.4 27.3C66.4 37.2 71.1 40 78.5 40C81.3 40.1 84.1 39.7 86.8 39L85.9 34.3C83.8 34.7 81.7 34.9 79.5 34.9C75.3 34.9 72.1 34.1 72 28.6H87.4V26.4C87.4 18.4 84.7 13.6 77.9 13.6ZM51.9 13.8C45.2 13.8 39.6 18.4 39.6 27C39.6 38.5 45.6 39.9 51 39.9C52.7 39.9 54.2 39.3 55.5 38.2C55.5 38.7 55.5 39.1 55.5 39.6C55.5 44.1 53 44.7 49.2 44.7C46.8 44.6 44.4 44.3 42.1 43.7L41.2 48.5C44.1 49.4 47.1 49.8 50.1 49.8C55.1 49.8 61.1 47.2 61.1 40.2V14.8C58.1 14.2 55 13.9 51.9 13.8ZM0.4 14.2V39.5H6.1V14.2H0.4ZM120.9 14.2V39.5H126.6V14.2H120.9ZM77.4 18.2C79.8 18.2 81.7 20.3 81.6 24.2H72.2C72.4 20 74.9 18.2 77.4 18.2ZM165.8 18.4C170.5 18.4 171.6 22.5 171.6 26.8C171.6 31.4 170.5 35.1 165.9 35.1C161.4 35.1 159.9 31.6 159.9 26.8C159.9 22.5 161.1 18.4 165.8 18.4ZM51.8 18.8C53 18.8 54.3 18.9 55.5 19.1V33.9C54.2 34.7 52.8 35.1 51.3 35.2C47.6 35.2 45.2 33.1 45.2 27.1C45.2 22.3 47.1 18.8 51.8 18.8Z" fill="#0C1E58"/>
</g>
<defs>
<clipPath id="clip0_216_208">
<rect width="177" height="50" fill="white"/>
</clipPath>
</defs>
</svg>
